<?xml version="1.0" encoding="UTF-8"?>
<svg id="Layer_1" data-name="Layer 1" xmlns="http://www.w3.org/2000/svg" xmlns:xlink="http://www.w3.org/1999/xlink" viewBox="0 0 840.75 151.16">
  <defs>
    <style>
      .cls-1 {
        fill: url(#linear-gradient-2);
      }

      .cls-2 {
        fill: #fff;
      }

      .cls-3 {
        fill: #010000;
      }

      .cls-4 {
        fill: url(#linear-gradient);
      }
    </style>
    <linearGradient id="linear-gradient" x1="104.85" y1="16.91" x2="104.85" y2="73.09" gradientUnits="userSpaceOnUse">
      <stop offset=".04" stop-color="#5d5d5d"/>
      <stop offset=".07" stop-color="#707070"/>
      <stop offset=".12" stop-color="#818181"/>
      <stop offset=".17" stop-color="#8b8b8b"/>
      <stop offset=".23" stop-color="#8f8f8f"/>
      <stop offset=".49" stop-color="#767676"/>
      <stop offset=".77" stop-color="#636363"/>
      <stop offset=".96" stop-color="#5d5d5d"/>
    </linearGradient>
    <linearGradient id="linear-gradient-2" x1="104.85" y1="134.21" x2="104.85" y2="78.56" gradientUnits="userSpaceOnUse">
      <stop offset=".09" stop-color="#7a7a7a"/>
      <stop offset=".1" stop-color="#767676"/>
      <stop offset=".18" stop-color="#676767"/>
      <stop offset=".27" stop-color="#5d5d5d"/>
      <stop offset=".4" stop-color="#5b5b5b"/>
      <stop offset=".46" stop-color="#5e5e5e"/>
      <stop offset=".84" stop-color="#707070"/>
      <stop offset=".9" stop-color="#6b6b6b"/>
      <stop offset=".96" stop-color="#5d5d5d"/>
      <stop offset="1" stop-color="#535353"/>
    </linearGradient>
  </defs>
  <g>
    <g>
      <path class="cls-2" d="M66.87,73.37h4.15c3.34,0,6.33-2.07,7.49-5.2v-.03s9.5-25.49,9.5-25.49v-14.02c0-4.86-3.95-8.81-8.81-8.81h-34.09v.28c3.79.98,6.59,4.43,6.59,8.52v94.61c0,4.1-2.8,7.54-6.59,8.52v.28h34.09c4.86,0,8.81-3.94,8.81-8.81v-13.98l-9.53-25.55c-1.14-3.13-4.12-5.21-7.46-5.21h-4.15c-.71,0-1.35-.29-1.81-.75-.47-.46-.75-1.1-.75-1.81,0-1.42,1.15-2.56,2.56-2.56Z"/>
      <path d="M79.2,132.8h-34.84v-1.63l.57-.15c3.54-.92,6.02-4.12,6.02-7.79V28.63c0-3.67-2.48-6.87-6.02-7.79l-.57-.15v-1.63h34.84c5.28,0,9.57,4.29,9.57,9.56v14.15l-9.54,25.62c-1.28,3.44-4.57,5.73-8.21,5.73h-4.15c-.99,0-1.8.81-1.8,1.81,0,.48.19.93.53,1.27.34.34.79.53,1.28.53h4.15c3.64,0,6.92,2.29,8.17,5.71l9.58,25.68v14.11c0,5.27-4.29,9.56-9.57,9.56ZM48.07,131.29h31.14c4.44,0,8.05-3.61,8.05-8.05v-13.84l-9.49-25.43c-1.03-2.82-3.74-4.72-6.75-4.72h-4.15c-.89,0-1.72-.35-2.35-.98-.62-.62-.97-1.45-.97-2.34,0-1.83,1.49-3.32,3.32-3.32h4.15c3.01,0,5.73-1.89,6.78-4.71l9.46-25.4v-13.88c0-4.44-3.61-8.05-8.05-8.05h-31.14c2.68,1.72,4.39,4.73,4.39,8.05v94.61c0,3.32-1.71,6.33-4.39,8.05Z"/>
    </g>
    <g>
      <path class="cls-4" d="M103.05,19.82c-3.93,0-7.44,2.44-8.81,6.13l-6.22,16.7-9.49,25.49v.03c-1.18,3.13-4.16,5.2-7.5,5.2h38.91c3.54,0,6.73-2.21,7.96-5.53l15.97-42.81c.83-2.3,2.62-3.99,4.8-4.76v-.46h-35.62Z"/>
      <path d="M109.93,74.13h-38.91v-1.52c3.01,0,5.73-1.89,6.78-4.71l15.72-42.22c1.47-3.96,5.3-6.62,9.52-6.62h36.38v1.75l-.51.18c-2.02.71-3.6,2.28-4.34,4.3l-15.98,42.82c-1.34,3.6-4.83,6.02-8.67,6.02ZM75.92,72.61h34.01c3.22,0,6.13-2.02,7.25-5.04l15.97-42.81c.63-1.73,1.77-3.18,3.25-4.19h-33.36c-3.59,0-6.85,2.26-8.1,5.63l-15.71,42.19c-.65,1.75-1.83,3.21-3.31,4.21Z"/>
    </g>
    <g>
      <path class="cls-1" d="M133.84,126.84l-15.72-42.22c-1.37-3.68-4.94-6.13-8.82-6.13h-38.28c3.34,0,6.32,2.08,7.46,5.21l9.53,25.55,6.44,17.26c1.24,3.32,4.41,5.53,7.96,5.53h36.26v-.46c-2.19-.77-3.99-2.48-4.83-4.74Z"/>
      <path d="M139.43,132.8h-37.01c-3.85,0-7.33-2.42-8.67-6.02l-15.97-42.81c-1.03-2.82-3.74-4.72-6.75-4.72v-1.52h38.28c4.22,0,8.05,2.66,9.53,6.62l15.72,42.22c.75,2.01,2.34,3.58,4.37,4.29l.51.18v1.75ZM75.92,79.25c1.47,1,2.64,2.45,3.27,4.19l15.97,42.8c1.12,3.01,4.04,5.04,7.25,5.04h33.99c-1.49-1.01-2.64-2.46-3.28-4.18l-15.72-42.22c-1.25-3.37-4.51-5.63-8.11-5.63h-33.38Z"/>
    </g>
  </g>
  <g>
    <path class="cls-3" d="M190.47,47.69c0,6.25-4.69,10.14-12.18,10.14h-5.65v7.73h-6.49v-28.05h12.14c7.49,0,12.18,3.89,12.18,10.18ZM183.9,47.69c0-3.09-2-4.89-5.97-4.89h-5.29v9.74h5.29c3.97,0,5.97-1.8,5.97-4.85Z"/>
    <path class="cls-3" d="M214.28,65.56l-5.41-7.81h-5.97v7.81h-6.49v-28.05h12.14c7.49,0,12.18,3.89,12.18,10.18,0,4.21-2.12,7.29-5.77,8.85l6.29,9.01h-6.97ZM208.19,42.8h-5.29v9.78h5.29c3.97,0,5.97-1.84,5.97-4.89s-2-4.89-5.97-4.89Z"/>
    <path class="cls-3" d="M249.14,60.35v5.21h-21.72v-28.05h21.19v5.21h-14.74v6.09h13.02v5.05h-13.02v6.49h15.26Z"/>
    <path class="cls-3" d="M253.91,62.8l2.2-4.89c2.36,1.72,5.89,2.92,9.25,2.92,3.85,0,5.41-1.28,5.41-3,0-5.25-16.31-1.64-16.31-12.06,0-4.77,3.85-8.73,11.82-8.73,3.53,0,7.13.84,9.74,2.48l-2,4.93c-2.6-1.48-5.29-2.2-7.77-2.2-3.85,0-5.33,1.44-5.33,3.21,0,5.17,16.31,1.6,16.31,11.9,0,4.69-3.89,8.69-11.9,8.69-4.45,0-8.93-1.32-11.42-3.24Z"/>
    <path class="cls-3" d="M283.49,37.52h6.49v28.05h-6.49v-28.05Z"/>
    <path class="cls-3" d="M298.06,37.52h12.74c9.17,0,15.46,5.53,15.46,14.02s-6.29,14.02-15.46,14.02h-12.74v-28.05ZM310.48,60.23c5.57,0,9.21-3.33,9.21-8.69s-3.65-8.69-9.21-8.69h-5.93v17.39h5.93Z"/>
    <path class="cls-3" d="M354.4,60.35v5.21h-21.72v-28.05h21.19v5.21h-14.74v6.09h13.02v5.05h-13.02v6.49h15.26Z"/>
    <path class="cls-3" d="M387.05,37.52v28.05h-5.33l-13.98-17.03v17.03h-6.41v-28.05h5.37l13.94,17.03v-17.03h6.41Z"/>
    <path class="cls-3" d="M400.8,42.8h-8.97v-5.29h24.44v5.29h-8.97v22.76h-6.49v-22.76Z"/>
    <path class="cls-3" d="M421.03,37.52h6.49v28.05h-6.49v-28.05Z"/>
    <path class="cls-3" d="M454.15,59.55h-13.02l-2.48,6.01h-6.65l12.5-28.05h6.41l12.54,28.05h-6.81l-2.48-6.01ZM452.11,54.62l-4.45-10.74-4.45,10.74h8.89Z"/>
    <path class="cls-3" d="M467.96,37.52h6.49v22.76h14.06v5.29h-20.55v-28.05Z"/>
    <path class="cls-3" d="M514,42.72v7.41h12.98v5.21h-12.98v10.22h-6.49v-28.05h21.19v5.21h-14.7Z"/>
    <path class="cls-3" d="M532.37,51.54c0-8.33,6.49-14.5,15.34-14.5s15.34,6.13,15.34,14.5-6.53,14.5-15.34,14.5-15.34-6.17-15.34-14.5ZM556.49,51.54c0-5.33-3.77-8.97-8.77-8.97s-8.77,3.65-8.77,8.97,3.77,8.97,8.77,8.97,8.77-3.65,8.77-8.97Z"/>
    <path class="cls-3" d="M569.18,53.22v-15.71h6.49v15.47c0,5.33,2.32,7.53,6.25,7.53s6.25-2.2,6.25-7.53v-15.47h6.41v15.71c0,8.25-4.73,12.82-12.7,12.82s-12.7-4.57-12.7-12.82Z"/>
    <path class="cls-3" d="M628.24,37.52v28.05h-5.33l-13.98-17.03v17.03h-6.41v-28.05h5.37l13.94,17.03v-17.03h6.41Z"/>
    <path class="cls-3" d="M636.42,37.52h12.74c9.17,0,15.46,5.53,15.46,14.02s-6.29,14.02-15.46,14.02h-12.74v-28.05ZM648.84,60.23c5.57,0,9.21-3.33,9.21-8.69s-3.65-8.69-9.21-8.69h-5.93v17.39h5.93Z"/>
    <path class="cls-3" d="M688.12,59.55h-13.02l-2.48,6.01h-6.65l12.5-28.05h6.41l12.54,28.05h-6.81l-2.48-6.01ZM686.08,54.62l-4.45-10.74-4.45,10.74h8.89Z"/>
    <path class="cls-3" d="M704.61,42.8h-8.97v-5.29h24.44v5.29h-8.97v22.76h-6.49v-22.76Z"/>
    <path class="cls-3" d="M724.84,37.52h6.49v28.05h-6.49v-28.05Z"/>
    <path class="cls-3" d="M737.72,51.54c0-8.33,6.49-14.5,15.34-14.5s15.34,6.13,15.34,14.5-6.53,14.5-15.34,14.5-15.34-6.17-15.34-14.5ZM761.84,51.54c0-5.33-3.77-8.97-8.77-8.97s-8.77,3.65-8.77,8.97,3.77,8.97,8.77,8.97,8.77-3.65,8.77-8.97Z"/>
    <path class="cls-3" d="M800.55,37.52v28.05h-5.33l-13.98-17.03v17.03h-6.41v-28.05h5.37l13.94,17.03v-17.03h6.41Z"/>
    <path class="cls-3" d="M172.64,90.8v7.41h12.98v5.21h-12.98v10.22h-6.49v-28.05h21.19v5.21h-14.7Z"/>
    <path class="cls-3" d="M191.01,99.62c0-8.33,6.49-14.5,15.34-14.5s15.34,6.13,15.34,14.5-6.53,14.5-15.34,14.5-15.34-6.17-15.34-14.5ZM215.13,99.62c0-5.33-3.77-8.97-8.77-8.97s-8.77,3.65-8.77,8.97,3.77,8.97,8.77,8.97,8.77-3.65,8.77-8.97Z"/>
    <path class="cls-3" d="M245.99,113.64l-5.41-7.81h-5.97v7.81h-6.49v-28.05h12.14c7.49,0,12.18,3.89,12.18,10.18,0,4.21-2.12,7.29-5.77,8.85l6.29,9.01h-6.97ZM239.9,90.88h-5.29v9.78h5.29c3.97,0,5.97-1.84,5.97-4.89s-2-4.89-5.97-4.89Z"/>
    <path class="cls-3" d="M271.15,99.62c0-8.45,6.49-14.5,15.22-14.5,4.85,0,8.89,1.76,11.54,4.97l-4.17,3.85c-1.88-2.16-4.25-3.29-7.05-3.29-5.25,0-8.97,3.69-8.97,8.97s3.73,8.97,8.97,8.97c2.8,0,5.17-1.12,7.05-3.33l4.17,3.85c-2.64,3.25-6.69,5.01-11.58,5.01-8.69,0-15.18-6.05-15.18-14.5Z"/>
    <path class="cls-3" d="M302.99,101.3v-15.71h6.49v15.47c0,5.33,2.32,7.53,6.25,7.53s6.25-2.2,6.25-7.53v-15.47h6.41v15.71c0,8.25-4.73,12.82-12.7,12.82s-12.7-4.57-12.7-12.82Z"/>
    <path class="cls-3" d="M336.33,85.59h6.49v22.76h14.06v5.29h-20.55v-28.05Z"/>
    <path class="cls-3" d="M364.39,90.88h-8.97v-5.29h24.44v5.29h-8.97v22.76h-6.49v-22.76Z"/>
    <path class="cls-3" d="M384.5,101.3v-15.71h6.49v15.47c0,5.33,2.32,7.53,6.25,7.53s6.25-2.2,6.25-7.53v-15.47h6.41v15.71c0,8.25-4.73,12.82-12.7,12.82s-12.7-4.57-12.7-12.82Z"/>
    <path class="cls-3" d="M435.71,113.64l-5.41-7.81h-5.97v7.81h-6.49v-28.05h12.14c7.49,0,12.18,3.89,12.18,10.18,0,4.21-2.12,7.29-5.77,8.85l6.29,9.01h-6.97ZM429.62,90.88h-5.29v9.78h5.29c3.97,0,5.97-1.84,5.97-4.89s-2-4.89-5.97-4.89Z"/>
    <path class="cls-3" d="M468.43,107.63h-13.02l-2.48,6.01h-6.65l12.5-28.05h6.41l12.54,28.05h-6.81l-2.48-6.01ZM466.38,102.7l-4.45-10.74-4.45,10.74h8.89Z"/>
    <path class="cls-3" d="M482.24,85.59h6.49v22.76h14.06v5.29h-20.55v-28.05Z"/>
    <path class="cls-3" d="M521.78,85.59h6.49v28.05h-6.49v-28.05Z"/>
    <path class="cls-3" d="M562.08,85.59v28.05h-5.33l-13.98-17.03v17.03h-6.41v-28.05h5.37l13.94,17.03v-17.03h6.41Z"/>
    <path class="cls-3" d="M570.25,85.59h6.49v28.05h-6.49v-28.05Z"/>
    <path class="cls-3" d="M590.41,90.88h-8.97v-5.29h24.44v5.29h-8.97v22.76h-6.49v-22.76Z"/>
    <path class="cls-3" d="M610.63,85.59h6.49v28.05h-6.49v-28.05Z"/>
    <path class="cls-3" d="M643.76,107.63h-13.02l-2.48,6.01h-6.65l12.5-28.05h6.41l12.54,28.05h-6.81l-2.48-6.01ZM641.71,102.7l-4.45-10.74-4.45,10.74h8.89Z"/>
    <path class="cls-3" d="M660.24,90.88h-8.97v-5.29h24.44v5.29h-8.97v22.76h-6.49v-22.76Z"/>
    <path class="cls-3" d="M680.47,85.59h6.49v28.05h-6.49v-28.05Z"/>
    <path class="cls-3" d="M722.08,85.59l-12.14,28.05h-6.41l-12.1-28.05h7.01l8.53,20.03,8.65-20.03h6.45Z"/>
    <path class="cls-3" d="M748.32,108.43v5.21h-21.72v-28.05h21.19v5.21h-14.74v6.09h13.02v5.05h-13.02v6.49h15.26Z"/>
    <path class="cls-3" d="M753.08,110.88l2.2-4.89c2.36,1.72,5.89,2.92,9.25,2.92,3.85,0,5.41-1.28,5.41-3,0-5.25-16.31-1.64-16.31-12.06,0-4.77,3.85-8.73,11.82-8.73,3.53,0,7.13.84,9.74,2.48l-2,4.93c-2.6-1.48-5.29-2.2-7.77-2.2-3.85,0-5.33,1.44-5.33,3.21,0,5.17,16.31,1.6,16.31,11.9,0,4.69-3.89,8.69-11.9,8.69-4.45,0-8.93-1.32-11.42-3.24Z"/>
  </g>
</svg>